<svg xmlns="http://www.w3.org/2000/svg" viewBox="0 0 32 32" fill="none">
  <rect width="32" height="32" rx="8" fill="#FF4D00"/>
  <path d="M16 6C14.5 6 13 7 13 9C13 10.5 14 11.5 14 11.5L11 15C10 16 10 17.5 11 18.5L14 21.5C14 21.5 13 23 13 24.5C13 26.5 15 27 16 27C17 27 19 26.5 19 24.5C19 23 18 21.5 18 21.5L21 18.5C22 17.5 22 16 21 15L18 11.5C18 11.5 19 10.5 19 9C19 7 17.5 6 16 6Z" fill="white" opacity="0.9"/>
  <circle cx="16" cy="9" r="2.5" fill="white"/>
  <circle cx="12" cy="16.5" r="1.5" fill="#00FF88"/>
  <circle cx="20" cy="16.5" r="1.5" fill="#00FF88"/>
</svg>
